<svg xmlns="http://www.w3.org/2000/svg" xmlns:xlink="http://www.w3.org/1999/xlink" width="820" height="400" viewBox="0 0 820 400">
  <style>
    text { font-family: 'Inter','Segoe UI',system-ui,sans-serif; }
    .sec { font-size: 13px; font-weight: 700; letter-spacing: 2px; }
    .lbl { font-size: 12.5px; font-weight: 600; }
    .hdl { font-size: 10px; fill: #484f58; }
  </style>
  <rect width="820" height="400" rx="16" fill="#0d1117"/>

  <text x="410" y="30" text-anchor="middle" class="sec" fill="#ff6b9d">SOUND &amp; FREQUENCY</text>

  <a xlink:href="https://soundcloud.com/iakadion" target="_blank">
    <rect x="16" y="42" width="255" height="44" rx="12" fill="#161b22"/>
    <g transform="translate(30,52) scale(0.58)"><path d="M23.999 14.165c-.052 1.796-1.612 3.169-3.4 3.169h-8.18a.68.68 0 0 1-.675-.683V7.862a.747.747 0 0 1 .452-.724s.75-.513 2.333-.513a5.364 5.364 0 0 1 2.763.755 5.433 5.433 0 0 1 2.57 3.54c.282-.08.574-.121.868-.12.884 0 1.73.358 2.347.992s.948 1.49.922 2.373ZM10.721 8.421c.247 2.98.427 5.697 0 8.672a.264.264 0 0 1-.53 0c-.395-2.946-.22-5.718 0-8.672a.264.264 0 0 1 .53 0ZM9.072 9.448c.285 2.659.37 4.986-.006 7.655a.277.277 0 0 1-.55 0c-.331-2.63-.256-5.02 0-7.655a.277.277 0 0 1 .556 0Zm-1.663-.257c.27 2.726.39 5.171 0 7.904a.266.266 0 0 1-.532 0c-.38-2.69-.257-5.21 0-7.904a.266.266 0 0 1 .532 0Zm-1.647.77a26.108 26.108 0 0 1-.008 7.147.272.272 0 0 1-.542 0 27.955 27.955 0 0 1 0-7.147.275.275 0 0 1 .55 0Zm-1.67 1.769c.421 1.865.228 3.5-.029 5.388a.257.257 0 0 1-.514 0c-.21-1.858-.398-3.549 0-5.389a.272.272 0 0 1 .543 0Zm-1.655-.273c.388 1.897.26 3.508-.01 5.412-.026.28-.514.283-.54 0-.244-1.878-.347-3.54-.01-5.412a.283.283 0 0 1 .56 0Zm-1.668.911c.4 1.268.257 2.292-.026 3.572a.257.257 0 0 1-.514 0c-.241-1.262-.354-2.312-.023-3.572a.283.283 0 0 1 .563 0Z" fill="#FF3300"/></g>
    <text x="72" y="60" class="lbl" fill="#FF3300">SoundCloud</text>
    <text x="72" y="76" class="hdl">@iakadion</text>
  </a>

  <a xlink:href="https://open.spotify.com/user/31w3syplutlik764wir6lrl4zlum" target="_blank">
    <rect x="283" y="42" width="255" height="44" rx="12" fill="#161b22"/>
    <g transform="translate(297,52) scale(0.58)"><path d="M12 0C5.4 0 0 5.4 0 12s5.4 12 12 12 12-5.4 12-12S18.66 0 12 0zm5.521 17.34c-.24.359-.66.48-1.021.24-2.82-1.74-6.36-2.101-10.561-1.141-.418.122-.779-.179-.899-.539-.12-.421.18-.78.54-.9 4.56-1.021 8.52-.6 11.64 1.32.42.18.479.659.301 1.02zm1.44-3.3c-.301.42-.841.6-1.262.3-3.239-1.98-8.159-2.58-11.939-1.38-.479.12-1.02-.12-1.14-.6-.12-.48.12-1.021.6-1.141C9.6 9.9 15 10.561 18.72 12.84c.361.181.54.78.241 1.2zm.12-3.36C15.24 8.4 8.82 8.16 5.16 9.301c-.6.179-1.2-.181-1.38-.721-.18-.601.18-1.2.72-1.381 4.26-1.26 11.28-1.02 15.721 1.621.539.3.719 1.02.419 1.56-.299.421-1.02.599-1.559.3z" fill="#1DB954"/></g>
    <text x="337" y="60" class="lbl" fill="#1DB954">Spotify</text>
    <text x="337" y="76" class="hdl">@iakadion</text>
  </a>

  <a xlink:href="https://youtube.com/@iakadion" target="_blank">
    <rect x="550" y="42" width="255" height="44" rx="12" fill="#161b22"/>
    <g transform="translate(564,52) scale(0.58)"><path d="M23.498 6.186a3.016 3.016 0 0 0-2.122-2.136C19.505 3.545 12 3.545 12 3.545s-7.505 0-9.377.505A3.017 3.017 0 0 0 .502 6.186C0 8.07 0 12 0 12s0 3.93.502 5.814a3.016 3.016 0 0 0 2.122 2.136c1.871.505 9.376.505 9.376.505s7.505 0 9.377-.505a3.015 3.015 0 0 0 2.122-2.136C24 15.93 24 12 24 12s0-3.93-.502-5.814zM9.545 15.568V8.432L15.818 12l-6.273 3.568z" fill="#FF0000"/></g>
    <text x="604" y="60" class="lbl" fill="#FF0000">YouTube</text>
    <text x="604" y="76" class="hdl">@iakadion</text>
  </a>

  <a xlink:href="https://beatstars.com/akadion" target="_blank">
    <rect x="16" y="96" width="255" height="44" rx="12" fill="#161b22"/>
    <circle cx="42" cy="118" r="12" fill="#E8430C" opacity="0.15"/>
    <text x="42" y="122" text-anchor="middle" font-size="10" font-weight="800" fill="#E8430C" font-family="sans-serif">B★</text>
    <text x="72" y="114" class="lbl" fill="#E8430C">BeatStars</text>
    <text x="72" y="130" class="hdl">@akadion</text>
  </a>

  <a xlink:href="https://suno.com/akadion" target="_blank">
    <rect x="283" y="96" width="255" height="44" rx="12" fill="#161b22"/>
    <circle cx="309" cy="118" r="12" fill="#00D4FF" opacity="0.15"/>
    <circle cx="309" cy="118" r="5" fill="none" stroke="#00D4FF" stroke-width="1.5"/>
    <circle cx="309" cy="118" r="1.5" fill="#00D4FF"/>
    <text x="337" y="114" class="lbl" fill="#00D4FF">Suno AI</text>
    <text x="337" y="130" class="hdl">@akadion</text>
  </a>

  <a xlink:href="https://genius.com/akadion" target="_blank">
    <rect x="550" y="96" width="255" height="44" rx="12" fill="#161b22"/>
    <circle cx="576" cy="118" r="12" fill="#FFFF64" opacity="0.12"/>
    <g transform="translate(570,110) scale(0.5)"><path d="M6 3h6l-2 7h4L8 21l1-8H6z" fill="#FFFF64"/></g>
    <text x="604" y="114" class="lbl" fill="#FFFF64">Genius</text>
    <text x="604" y="130" class="hdl">@akadion</text>
  </a>

  <text x="410" y="178" text-anchor="middle" class="sec" fill="#a855f7">SOCIAL &amp; MEDIA</text>

  <a xlink:href="https://instagram.com/iakadion" target="_blank">
    <rect x="16" y="190" width="255" height="44" rx="12" fill="#161b22"/>
    <g transform="translate(30,200) scale(0.58)"><path d="M7.0301.084c-1.2768.0602-2.1487.264-2.911.5634-.7888.3075-1.4575.72-2.1228 1.3877-.6652.6677-1.075 1.3368-1.3802 2.127-.2954.7638-.4956 1.6365-.552 2.914-.0564 1.2775-.0689 1.6882-.0626 4.947.0062 3.2586.0206 3.6671.0825 4.9473.061 1.2765.264 2.1482.5635 2.9107.308.7889.72 1.4573 1.388 2.1228.6679.6655 1.3365 1.0743 2.1285 1.38.7632.295 1.6361.4961 2.9134.552 1.2773.056 1.6884.069 4.9462.0627 3.2578-.0062 3.668-.0207 4.9478-.0814 1.28-.0607 2.147-.2652 2.9098-.5633.7889-.3086 1.4578-.72 2.1228-1.3881.665-.6682 1.0745-1.3378 1.3795-2.1284.2957-.7632.4966-1.636.552-2.9124.056-1.2809.0692-1.6898.063-4.948-.0063-3.2583-.021-3.6668-.0817-4.9465-.0607-1.2797-.264-2.1487-.5633-2.9117-.3084-.7889-.72-1.4568-1.3876-2.1228C21.2982 1.33 20.628.9208 19.8378.6165 19.074.321 18.2017.1197 16.9244.0645 15.6471.0093 15.236-.005 11.977.0014 8.718.0076 8.31.0215 7.0301.0839m.1402 21.6932c-1.17-.0509-1.8053-.2453-2.2287-.408-.5606-.216-.96-.4771-1.3819-.895-.422-.4178-.6811-.8186-.9-1.378-.1644-.4234-.3624-1.058-.4171-2.228-.0595-1.2645-.072-1.6442-.079-4.848-.007-3.2037.0053-3.583.0607-4.848.05-1.169.2456-1.805.408-2.2282.216-.5613.4762-.96.895-1.3816.4188-.4217.8184-.6814 1.3783-.9003.423-.1651 1.0575-.3614 2.227-.4171 1.2655-.06 1.6447-.072 4.848-.079 3.2033-.007 3.5835.005 4.8495.0608 1.169.0508 1.8053.2445 2.228.408.5608.216.96.4754 1.3816.895.4217.4194.6816.8176.9005 1.3787.1653.4217.3617 1.056.4169 2.2263.0602 1.2655.0739 1.645.0796 4.848.0058 3.203-.0055 3.5834-.061 4.848-.051 1.17-.245 1.8055-.408 2.2294-.216.5604-.4763.96-.8954 1.3814-.419.4215-.8181.6811-1.3783.9-.4224.1649-1.0577.3617-2.2262.4174-1.2656.0595-1.6448.072-4.8493.079-3.2045.007-3.5825-.006-4.848-.0608M16.953 5.5864A1.44 1.44 0 1 0 18.39 4.144a1.44 1.44 0 0 0-1.437 1.4424M5.8385 12.012c.0067 3.4032 2.7706 6.1557 6.173 6.1493 3.4026-.0065 6.157-2.7701 6.1506-6.1733-.0065-3.4032-2.771-6.1565-6.174-6.1498-3.403.0067-6.156 2.771-6.1496 6.1738M8 12.0077a4 4 0 1 1 4.008 3.9921A3.9996 3.9996 0 0 1 8 12.0077" fill="#E4405F"/></g>
    <text x="72" y="208" class="lbl" fill="#E4405F">Instagram</text>
    <text x="72" y="224" class="hdl">@iakadion</text>
  </a>

  <a xlink:href="https://x.com/iakadion" target="_blank">
    <rect x="283" y="190" width="255" height="44" rx="12" fill="#161b22"/>
    <g transform="translate(297,200) scale(0.58)"><path d="M14.234 10.162 22.977 0h-2.072l-7.591 8.824L7.251 0H.258l9.168 13.343L.258 24H2.33l8.016-9.318L16.749 24h6.993zm-2.837 3.299-.929-1.329L3.076 1.56h3.182l5.965 8.532.929 1.329 7.754 11.09h-3.182z" fill="#ffffff"/></g>
    <text x="337" y="208" class="lbl" fill="#fff">X / Twitter</text>
    <text x="337" y="224" class="hdl">@iakadion</text>
  </a>

  <a xlink:href="https://twitch.tv/iakadion" target="_blank">
    <rect x="550" y="190" width="255" height="44" rx="12" fill="#161b22"/>
    <g transform="translate(564,200) scale(0.58)"><path d="M11.571 4.714h1.715v5.143H11.57zm4.715 0H18v5.143h-1.714zM6 0L1.714 4.286v15.428h5.143V24l4.286-4.286h3.428L22.286 12V0zm14.571 11.143l-3.428 3.428h-3.429l-3 3v-3H6.857V1.714h13.714Z" fill="#9146FF"/></g>
    <text x="604" y="208" class="lbl" fill="#9146FF">Twitch</text>
    <text x="604" y="224" class="hdl">@iakadion</text>
  </a>

  <a xlink:href="https://threads.net/@iakadion" target="_blank">
    <rect x="16" y="244" width="255" height="44" rx="12" fill="#161b22"/>
    <g transform="translate(30,254) scale(0.58)"><path d="M12.186 24h-.007c-3.581-.024-6.334-1.205-8.184-3.509C2.35 18.44 1.5 15.586 1.472 12.01v-.017c.03-3.579.879-6.43 2.525-8.482C5.845 1.205 8.6.024 12.18 0h.014c2.746.02 5.043.725 6.826 2.098 1.677 1.29 2.858 3.13 3.509 5.467l-2.04.569c-1.104-3.96-3.898-5.984-8.304-6.015-2.91.022-5.11.936-6.54 2.717C4.307 6.504 3.616 8.914 3.589 12c.027 3.086.718 5.496 2.057 7.164 1.43 1.783 3.631 2.698 6.54 2.717 2.623-.02 4.358-.631 5.8-2.045 1.647-1.613 1.618-3.593 1.09-4.798-.31-.71-.873-1.3-1.634-1.75-.192 1.352-.622 2.446-1.284 3.272-.886 1.102-2.14 1.704-3.73 1.79-1.202.065-2.361-.218-3.259-.801-1.063-.689-1.685-1.74-1.752-2.964-.065-1.19.408-2.285 1.33-3.082.88-.76 2.119-1.207 3.583-1.291a13.853 13.853 0 0 1 3.02.142c-.126-.742-.375-1.332-.75-1.757-.513-.586-1.308-.883-2.359-.89h-.029c-.844 0-1.992.232-2.721 1.32L7.734 7.847c.98-1.454 2.568-2.256 4.478-2.256h.044c3.194.02 5.097 1.975 5.287 5.388.108.046.216.094.321.142 1.49.7 2.58 1.761 3.154 3.07.797 1.82.871 4.79-1.548 7.158-1.85 1.81-4.094 2.628-7.277 2.65Zm1.003-11.69c-.242 0-.487.007-.739.021-1.836.103-2.98.946-2.916 2.143.067 1.256 1.452 1.839 2.784 1.767 1.224-.065 2.818-.543 3.086-3.71a10.5 10.5 0 0 0-2.215-.221z" fill="#ffffff"/></g>
    <text x="72" y="262" class="lbl" fill="#fff">Threads</text>
    <text x="72" y="278" class="hdl">@iakadion</text>
  </a>

  <a xlink:href="https://bsky.app/profile/akadion" target="_blank">
    <rect x="283" y="244" width="255" height="44" rx="12" fill="#161b22"/>
    <g transform="translate(297,254) scale(0.58)"><path d="M5.202 2.857C7.954 4.922 10.913 9.11 12 11.358c1.087-2.247 4.046-6.436 6.798-8.501C20.783 1.366 24 .213 24 3.883c0 .732-.42 6.156-.667 7.037-.856 3.061-3.978 3.842-6.755 3.37 4.854.826 6.089 3.562 3.422 6.299-5.065 5.196-7.28-1.304-7.847-2.97-.104-.305-.152-.448-.153-.327 0-.121-.05.022-.153.327-.568 1.666-2.782 8.166-7.847 2.97-2.667-2.737-1.432-5.473 3.422-6.3-2.777.473-5.899-.308-6.755-3.369C.42 10.04 0 4.615 0 3.883c0-3.67 3.217-2.517 5.202-1.026" fill="#0285FF"/></g>
    <text x="337" y="262" class="lbl" fill="#0285FF">Bluesky</text>
    <text x="337" y="278" class="hdl">@akadion</text>
  </a>

  <a xlink:href="https://reddit.com/u/iakadion" target="_blank">
    <rect x="550" y="244" width="255" height="44" rx="12" fill="#161b22"/>
    <g transform="translate(564,254) scale(0.58)"><path d="M12 0C5.373 0 0 5.373 0 12c0 3.314 1.343 6.314 3.515 8.485l-2.286 2.286C.775 23.225 1.097 24 1.738 24H12c6.627 0 12-5.373 12-12S18.627 0 12 0Zm4.388 3.199c1.104 0 1.999.895 1.999 1.999 0 1.105-.895 2-1.999 2-.946 0-1.739-.657-1.947-1.539v.002c-1.147.162-2.032 1.15-2.032 2.341v.007c1.776.067 3.4.567 4.686 1.363.473-.363 1.064-.58 1.707-.58 1.547 0 2.802 1.254 2.802 2.802 0 1.117-.655 2.081-1.601 2.531-.088 3.256-3.637 5.876-7.997 5.876-4.361 0-7.905-2.617-7.998-5.87-.954-.447-1.614-1.415-1.614-2.538 0-1.548 1.255-2.802 2.803-2.802.645 0 1.239.218 1.712.585 1.275-.79 2.881-1.291 4.64-1.365v-.01c0-1.663 1.263-3.034 2.88-3.207.188-.911.993-1.595 1.959-1.595Zm-8.085 8.376c-.784 0-1.459.78-1.506 1.797-.047 1.016.64 1.429 1.426 1.429.786 0 1.371-.369 1.418-1.385.047-1.017-.553-1.841-1.338-1.841Zm7.406 0c-.786 0-1.385.824-1.338 1.841.047 1.017.634 1.385 1.418 1.385.785 0 1.473-.413 1.426-1.429-.046-1.017-.721-1.797-1.506-1.797Zm-3.703 4.013c-.974 0-1.907.048-2.77.135-.147.015-.241.168-.183.305.483 1.154 1.622 1.964 2.953 1.964 1.33 0 2.47-.81 2.953-1.964.057-.137-.037-.29-.184-.305-.863-.087-1.795-.135-2.769-.135Z" fill="#FF4500"/></g>
    <text x="604" y="262" class="lbl" fill="#FF4500">Reddit</text>
    <text x="604" y="278" class="hdl">@iakadion</text>
  </a>

  <text x="410" y="326" text-anchor="middle" class="sec" fill="#00f7f7">CODE &amp; DEV</text>

  <a xlink:href="https://github.com/iakadion" target="_blank">
    <rect x="16" y="338" width="156" height="38" rx="10" fill="#161b22"/>
    <g transform="translate(30,346) scale(0.52)"><path d="M12 .297c-6.63 0-12 5.373-12 12 0 5.303 3.438 9.8 8.205 11.385.6.113.82-.258.82-.577 0-.285-.01-1.04-.015-2.04-3.338.724-4.042-1.61-4.042-1.61C4.422 18.07 3.633 17.7 3.633 17.7c-1.087-.744.084-.729.084-.729 1.205.084 1.838 1.236 1.838 1.236 1.07 1.835 2.809 1.305 3.495.998.108-.776.417-1.305.76-1.605-2.665-.3-5.466-1.332-5.466-5.93 0-1.31.465-2.38 1.235-3.22-.135-.303-.54-1.523.105-3.176 0 0 1.005-.322 3.3 1.23.96-.267 1.98-.399 3-.405 1.02.006 2.04.138 3 .405 2.28-1.552 3.285-1.23 3.285-1.23.645 1.653.24 2.873.12 3.176.765.84 1.23 1.91 1.23 3.22 0 4.61-2.805 5.625-5.475 5.92.42.36.81 1.096.81 2.22 0 1.606-.015 2.896-.015 3.286 0 .315.21.69.825.57C20.565 22.092 24 17.592 24 12.297c0-6.627-5.373-12-12-12" fill="#c9d1d9"/></g>
    <text x="62" y="361" class="lbl" fill="#c9d1d9">GitHub</text>
  </a>

  <a xlink:href="https://gitlab.com/akadion" target="_blank">
    <rect x="182" y="338" width="156" height="38" rx="10" fill="#161b22"/>
    <g transform="translate(196,346) scale(0.52)"><path d="m23.6004 9.5927-.0337-.0862L20.3.9814a.851.851 0 0 0-.3362-.405.8748.8748 0 0 0-.9997.0539.8748.8748 0 0 0-.29.4399l-2.2055 6.748H7.5375l-2.2057-6.748a.8573.8573 0 0 0-.29-.4412.8748.8748 0 0 0-.9997-.0537.8585.8585 0 0 0-.3362.4049L.4332 9.5015l-.0325.0862a6.0657 6.0657 0 0 0 2.0119 7.0105l.0113.0087.03.0213 4.976 3.7264 2.462 1.8633 1.4995 1.1321a1.0085 1.0085 0 0 0 1.2197 0l1.4995-1.1321 2.4619-1.8633 5.006-3.7489.0125-.01a6.0682 6.0682 0 0 0 2.0094-7.003z" fill="#FC6D26"/></g>
    <text x="228" y="361" class="lbl" fill="#FC6D26">GitLab</text>
  </a>

  <a xlink:href="https://codepen.io/akadion" target="_blank">
    <rect x="348" y="338" width="156" height="38" rx="10" fill="#161b22"/>
    <circle cx="372" cy="357" r="10" fill="#c9d1d9" opacity="0.1"/>
    <path d="M367 354.5l5 3 5-3M367 357l5 3 5-3M372 351.5v3M372 360.5v3" fill="none" stroke="#c9d1d9" stroke-width="1.2" stroke-linecap="round" stroke-linejoin="round"/>
    <text x="392" y="361" class="lbl" fill="#c9d1d9">CodePen</text>
  </a>

  <a xlink:href="https://stackoverflow.com/users/akadion" target="_blank">
    <rect x="514" y="338" width="156" height="38" rx="10" fill="#161b22"/>
    <g transform="translate(528,346) scale(0.52)"><path d="M15.725 0l-1.72 1.277 6.39 8.588 1.716-1.277L15.725 0zm-3.94 3.418l-1.369 1.644 8.225 6.85 1.369-1.644-8.225-6.85zm-3.15 4.465l-.905 1.94 9.702 4.517.904-1.94-9.701-4.517zm-1.85 4.86l-.44 2.093 10.473 2.201.44-2.092-10.473-2.203zM1.89 15.47V24h19.19v-8.53h-2.133v6.397H4.021v-6.396H1.89zm4.265 2.133v2.13h10.66v-2.13H6.154Z" fill="#F58025"/></g>
    <text x="560" y="361" class="lbl" fill="#F58025">StackOverflow</text>
  </a>
</svg>
