<svg xmlns="http://www.w3.org/2000/svg" xmlns:xlink="http://www.w3.org/1999/xlink" width="820" height="400" viewBox="0 0 820 400">
  <defs>
    <linearGradient id="igGrad" x1="0%" y1="100%" x2="100%" y2="0%">
      <stop offset="0%" stop-color="#FD5"/>
      <stop offset="25%" stop-color="#F56040"/>
      <stop offset="50%" stop-color="#E1306C"/>
      <stop offset="75%" stop-color="#C13584"/>
      <stop offset="100%" stop-color="#833AB4"/>
    </linearGradient>
  </defs>
  <style>
    text { font-family: 'Inter','Segoe UI',system-ui,sans-serif; }
    .sec { font-size: 13px; font-weight: 700; letter-spacing: 2px; }
    .lbl { font-size: 12.5px; font-weight: 600; }
    .hdl { font-size: 10px; fill: #484f58; }
    .row:hover rect { fill: #1c2333; }
  </style>
  <rect width="820" height="400" rx="16" fill="#0d1117"/>

  <text x="410" y="30" text-anchor="middle" class="sec" fill="#ff6b9d">SOUND &amp; FREQUENCY</text>

  <a xlink:href="https://soundcloud.com/iakadion" target="_blank">
    <rect x="16" y="42" width="255" height="44" rx="12" fill="#161b22"/>
    <circle cx="42" cy="64" r="14" fill="#FF3300" opacity="0.15"/>
    <path d="M36 70c0-4 3-7 7-7v7z" fill="#FF3300"/><path d="M44 63v7M48 61v9M52 59v11" fill="none" stroke="#FF3300" stroke-width="1.8" stroke-linecap="round"/>
    <text x="72" y="60" class="lbl" fill="#FF3300">SoundCloud</text>
    <text x="72" y="76" class="hdl">@iakadion</text>
  </a>

  <a xlink:href="https://open.spotify.com/user/31w3syplutlik764wir6lrl4zlum" target="_blank">
    <rect x="283" y="42" width="255" height="44" rx="12" fill="#161b22"/>
    <circle cx="309" cy="64" r="14" fill="#1DB954" opacity="0.15"/>
    <circle cx="309" cy="64" r="7" fill="#1DB954"/>
    <path d="M305 67c3-1 6-.5 8 .5" fill="none" stroke="#0d1117" stroke-width="1.5" stroke-linecap="round"/>
    <circle cx="307" cy="62" r="1.2" fill="#0d1117"/>
    <circle cx="312" cy="61" r="1.2" fill="#0d1117"/>
    <text x="337" y="60" class="lbl" fill="#1DB954">Spotify</text>
    <text x="337" y="76" class="hdl">@iakadion</text>
  </a>

  <a xlink:href="https://youtube.com/@iakadion" target="_blank">
    <rect x="550" y="42" width="255" height="44" rx="12" fill="#161b22"/>
    <circle cx="576" cy="64" r="14" fill="#FF0000" opacity="0.15"/>
    <path d="M570 61h12v6h-12z" fill="#FF0000" rx="1.5"/>
    <path d="M575 64l4-2.5v5z" fill="#fff"/>
    <text x="604" y="60" class="lbl" fill="#FF0000">YouTube</text>
    <text x="604" y="76" class="hdl">@iakadion</text>
  </a>

  <a xlink:href="https://beatstars.com/akadion" target="_blank">
    <rect x="16" y="96" width="255" height="44" rx="12" fill="#161b22"/>
    <circle cx="42" cy="118" r="14" fill="#E8430C" opacity="0.15"/>
    <rect x="34" y="112" width="5" height="4" rx="1" fill="#E8430C"/>
    <rect x="41" y="112" width="5" height="3" rx="1" fill="#E8430C"/>
    <rect x="34" y="117" width="5" height="4" rx="1" fill="#E8430C"/>
    <rect x="41" y="117" width="5" height="5" rx="1" fill="#E8430C"/>
    <text x="72" y="114" class="lbl" fill="#E8430C">BeatStars</text>
    <text x="72" y="130" class="hdl">@akadion</text>
  </a>

  <a xlink:href="https://suno.com/akadion" target="_blank">
    <rect x="283" y="96" width="255" height="44" rx="12" fill="#161b22"/>
    <circle cx="309" cy="118" r="14" fill="#00D4FF" opacity="0.15"/>
    <circle cx="309" cy="118" r="5" fill="none" stroke="#00D4FF" stroke-width="1.8"/>
    <circle cx="309" cy="118" r="1.5" fill="#00D4FF"/>
    <text x="337" y="114" class="lbl" fill="#00D4FF">Suno AI</text>
    <text x="337" y="130" class="hdl">@akadion</text>
  </a>

  <a xlink:href="https://genius.com/akadion" target="_blank">
    <rect x="550" y="96" width="255" height="44" rx="12" fill="#161b22"/>
    <circle cx="576" cy="118" r="14" fill="#FFFF64" opacity="0.15"/>
    <path d="M571 123l3-10h4l-2 6h3l-5 10 1-6z" fill="#FFFF64"/>
    <text x="604" y="114" class="lbl" fill="#FFFF64">Genius</text>
    <text x="604" y="130" class="hdl">@akadion</text>
  </a>

  <text x="410" y="178" text-anchor="middle" class="sec" fill="#a855f7">SOCIAL &amp; MEDIA</text>

  <a xlink:href="https://instagram.com/iakadion" target="_blank">
    <rect x="16" y="190" width="255" height="44" rx="12" fill="#161b22"/>
    <circle cx="42" cy="212" r="14" fill="url(#igGrad)" opacity="0.2"/>
    <rect x="34" y="204" width="16" height="16" rx="5" fill="none" stroke="url(#igGrad)" stroke-width="1.6"/>
    <circle cx="42" cy="212" r="4" fill="none" stroke="url(#igGrad)" stroke-width="1.6"/>
    <circle cx="48" cy="206" r="1.2" fill="url(#igGrad)"/>
    <text x="72" y="208" class="lbl" fill="#E1306C">Instagram</text>
    <text x="72" y="224" class="hdl">@iakadion</text>
  </a>

  <a xlink:href="https://x.com/iakadion" target="_blank">
    <rect x="283" y="190" width="255" height="44" rx="12" fill="#161b22"/>
    <circle cx="309" cy="212" r="14" fill="#fff" opacity="0.08"/>
    <path d="M302 206l6 6-6 6M308 206l6 6-6 6" stroke="#fff" stroke-width="2" stroke-linecap="round" stroke-linejoin="round" fill="none"/>
    <text x="337" y="208" class="lbl" fill="#fff">X / Twitter</text>
    <text x="337" y="224" class="hdl">@iakadion</text>
  </a>

  <a xlink:href="https://twitch.tv/iakadion" target="_blank">
    <rect x="550" y="190" width="255" height="44" rx="12" fill="#161b22"/>
    <circle cx="576" cy="212" r="14" fill="#9146FF" opacity="0.15"/>
    <path d="M569 206h8l3 3v6h-5l-2 2h-2v-2h-2v-7z" fill="none" stroke="#9146FF" stroke-width="1.4"/>
    <path d="M573 209v3M577 209v3" stroke="#9146FF" stroke-width="1.3" stroke-linecap="round"/>
    <text x="604" y="208" class="lbl" fill="#9146FF">Twitch</text>
    <text x="604" y="224" class="hdl">@iakadion</text>
  </a>

  <a xlink:href="https://threads.net/@iakadion" target="_blank">
    <rect x="16" y="244" width="255" height="44" rx="12" fill="#161b22"/>
    <circle cx="42" cy="266" r="14" fill="#fff" opacity="0.08"/>
    <path d="M48 262c-1-2-3-3-6-3-4 0-7 3-7 7s3 7 7 7c3 0 5-1 6-3" fill="none" stroke="#fff" stroke-width="1.8" stroke-linecap="round"/>
    <line x1="35" y1="266" x2="48" y2="266" stroke="#fff" stroke-width="1.5" stroke-linecap="round"/>
    <text x="72" y="262" class="lbl" fill="#fff">Threads</text>
    <text x="72" y="278" class="hdl">@iakadion</text>
  </a>

  <a xlink:href="https://bsky.app/profile/akadion" target="_blank">
    <rect x="283" y="244" width="255" height="44" rx="12" fill="#161b22"/>
    <circle cx="309" cy="266" r="14" fill="#0285FF" opacity="0.15"/>
    <path d="M303 260c0 4 5 6 6 6s6-2 6-6-3-5-6-5-6 1-6 5z" fill="#0285FF"/>
    <text x="337" y="262" class="lbl" fill="#0285FF">Bluesky</text>
    <text x="337" y="278" class="hdl">@akadion</text>
  </a>

  <a xlink:href="https://reddit.com/u/iakadion" target="_blank">
    <rect x="550" y="244" width="255" height="44" rx="12" fill="#161b22"/>
    <circle cx="576" cy="266" r="14" fill="#FF4500" opacity="0.15"/>
    <circle cx="576" cy="267" r="5" fill="#FF4500"/>
    <circle cx="573" cy="264" r="1.5" fill="#0d1117"/>
    <circle cx="579" cy="264" r="1.5" fill="#0d1117"/>
    <path d="M574 270c1 1 3 2 4 0" fill="none" stroke="#0d1117" stroke-width="1" stroke-linecap="round"/>
    <circle cx="583" cy="260" r="1.5" fill="#FF4500"/>
    <text x="604" y="262" class="lbl" fill="#FF4500">Reddit</text>
    <text x="604" y="278" class="hdl">@iakadion</text>
  </a>

  <text x="410" y="326" text-anchor="middle" class="sec" fill="#00f7f7">CODE &amp; DEV</text>

  <a xlink:href="https://github.com/iakadion" target="_blank">
    <rect x="16" y="338" width="156" height="38" rx="10" fill="#161b22"/>
    <circle cx="40" cy="357" r="11" fill="#c9d1d9" opacity="0.1"/>
    <path d="M40 348a9 9 0 0 0-3 17.5c.5.1.6-.2.6-.4v-1.5c-2.5.5-3-1.2-3-1.2-.4-1-1-1.3-1-1.3-.8-.6.1-.6.1-.6.9.1 1.4.9 1.4.9.8 1.4 2.1 1 2.6.8.1-.6.3-1 .6-1.2-2-.2-4.1-1-4.1-4.5 0-1 .4-1.8 .9-2.4-.1-.2-.4-1.1.1-2.4 0 0 .7-.2 2.4.9a8.4 8.4 0 0 1 4.4 0c1.7-1.1 2.4-.9 2.4-.9.5 1.3.2 2.2.1 2.4.6.6.9 1.4.9 2.4 0 3.5-2.1 4.3-4.1 4.5.3.3.6.8.6 1.7v2.6c0 .2.1.5.6.4A9 9 0 0 0 40 348" fill="#c9d1d9"/>
    <text x="60" y="361" class="lbl" fill="#c9d1d9">GitHub</text>
  </a>

  <a xlink:href="https://gitlab.com/akadion" target="_blank">
    <rect x="182" y="338" width="156" height="38" rx="10" fill="#161b22"/>
    <circle cx="206" cy="357" r="11" fill="#FC6D26" opacity="0.15"/>
    <path d="M200 354l2.5 8h7l2.5-8-6-4z" fill="#FC6D26" transform="translate(0,-1) scale(0.7) translate(3,2)"/>
    <text x="226" y="361" class="lbl" fill="#FC6D26">GitLab</text>
  </a>

  <a xlink:href="https://codepen.io/akadion" target="_blank">
    <rect x="348" y="338" width="156" height="38" rx="10" fill="#161b22"/>
    <circle cx="372" cy="357" r="11" fill="#c9d1d9" opacity="0.1"/>
    <path d="M367 354l5 3.5 5-3.5M367 357l5 3.5 5-3.5M372 350.5v3M372 360.5v3M367 360l5 3.5 5-3.5M367 354l5 3.5 5-3.5" fill="none" stroke="#c9d1d9" stroke-width="1.2"/>
    <text x="392" y="361" class="lbl" fill="#c9d1d9">CodePen</text>
  </a>

  <a xlink:href="https://stackoverflow.com/users/akadion" target="_blank">
    <rect x="514" y="338" width="156" height="38" rx="10" fill="#161b22"/>
    <circle cx="538" cy="357" r="11" fill="#F58025" opacity="0.15"/>
    <path d="M533 361h10v2h-10z" fill="#BCBBBB"/>
    <path d="M543 361v-5H533" fill="none" stroke="#F58025" stroke-width="1.5" stroke-linecap="round" stroke-linejoin="round"/>
    <text x="558" y="361" class="lbl" fill="#F58025">StackOverflow</text>
  </a>
</svg>
