<svg xmlns="http://www.w3.org/2000/svg" xmlns:xlink="http://www.w3.org/1999/xlink" width="820" height="180" viewBox="0 0 820 180">
  <style>
    text { font-family: 'Inter','Segoe UI',system-ui,sans-serif; }
    .sec { font-size: 13px; font-weight: 700; letter-spacing: 2px; }
    .lbl { font-size: 12.5px; font-weight: 600; }
    .hdl { font-size: 10px; fill: #484f58; }
  </style>
  <rect width="820" height="180" rx="16" fill="#0d1117"/>

  <text x="410" y="30" text-anchor="middle" class="sec" fill="#ffd700">CREATIVE &amp; WRITING</text>

  <a xlink:href="https://behance.net/akadion" target="_blank">
    <rect x="16" y="42" width="255" height="44" rx="12" fill="#161b22"/>
    <g transform="translate(30,52) scale(0.58)"><path d="M16.969 16.927a2.561 2.561 0 0 0 1.901.677 2.501 2.501 0 0 0 1.531-.475c.362-.235.636-.584.779-.99h2.585a5.091 5.091 0 0 1-1.9 2.896 5.292 5.292 0 0 1-3.091.88 5.839 5.839 0 0 1-2.284-.433 4.871 4.871 0 0 1-1.723-1.211 5.657 5.657 0 0 1-1.08-1.874 7.057 7.057 0 0 1-.383-2.393c-.005-.8.129-1.595.396-2.349a5.313 5.313 0 0 1 5.088-3.604 4.87 4.87 0 0 1 2.376.563c.661.362 1.231.87 1.668 1.485a6.2 6.2 0 0 1 .943 2.133c.194.821.263 1.666.205 2.508h-7.699c-.063.79.184 1.574.688 2.187ZM6.947 4.084a8.065 8.065 0 0 1 1.928.198 4.29 4.29 0 0 1 1.49.638c.418.303.748.711.958 1.182.241.579.357 1.203.341 1.83a3.506 3.506 0 0 1-.506 1.961 3.726 3.726 0 0 1-1.503 1.287 3.588 3.588 0 0 1 2.027 1.437c.464.747.697 1.615.67 2.494a4.593 4.593 0 0 1-.423 2.032 3.945 3.945 0 0 1-1.163 1.413 5.114 5.114 0 0 1-1.683.807 7.135 7.135 0 0 1-1.928.259H0V4.084h6.947Zm-.235 12.9c.308.004.616-.029.916-.099a2.18 2.18 0 0 0 .766-.332c.228-.158.411-.371.534-.619.142-.317.208-.663.191-1.009a2.08 2.08 0 0 0-.642-1.715 2.618 2.618 0 0 0-1.696-.505h-3.54v4.279h3.471Zm13.635-5.967a2.13 2.13 0 0 0-1.654-.619 2.336 2.336 0 0 0-1.163.259 2.474 2.474 0 0 0-.738.62 2.359 2.359 0 0 0-.396.792c-.074.239-.12.485-.137.734h4.769a3.239 3.239 0 0 0-.679-1.785l-.002-.001Zm-13.813-.648a2.254 2.254 0 0 0 1.423-.433c.399-.355.607-.88.56-1.413a1.916 1.916 0 0 0-.178-.891 1.298 1.298 0 0 0-.495-.533 1.851 1.851 0 0 0-.711-.274 3.966 3.966 0 0 0-.835-.073H3.241v3.631h3.293v-.014ZM21.62 5.122h-5.976v1.527h5.976V5.122Z" fill="#1769FF"/></g>
    <text x="72" y="60" class="lbl" fill="#1769FF">Behance</text>
    <text x="72" y="76" class="hdl">@akadion</text>
  </a>

  <a xlink:href="https://dribbble.com/akadion" target="_blank">
    <rect x="283" y="42" width="255" height="44" rx="12" fill="#161b22"/>
    <g transform="translate(297,52) scale(0.58)"><path d="M12 24C5.385 24 0 18.615 0 12S5.385 0 12 0s12 5.385 12 12-5.385 12-12 12zm10.12-10.358c-.35-.11-3.17-.953-6.384-.438 1.34 3.684 1.887 6.684 1.992 7.308 2.3-1.555 3.936-4.02 4.395-6.87zm-6.115 7.808c-.153-.9-.75-4.032-2.19-7.77l-.066.02c-5.79 2.015-7.86 6.025-8.04 6.4 1.73 1.358 3.92 2.166 6.29 2.166 1.42 0 2.77-.29 4-.814zm-11.62-2.58c.232-.4 3.045-5.055 8.332-6.765.135-.045.27-.084.405-.12-.26-.585-.54-1.167-.832-1.74C7.17 11.775 2.206 11.71 1.756 11.7l-.004.312c0 2.633.998 5.037 2.634 6.855zm-2.42-8.955c.46.008 4.683.026 9.477-1.248-1.698-3.018-3.53-5.558-3.8-5.928-2.868 1.35-5.01 3.99-5.676 7.17zM9.6 2.052c.282.38 2.145 2.914 3.822 6 3.645-1.365 5.19-3.44 5.373-3.702-1.81-1.61-4.19-2.586-6.795-2.586-.825 0-1.63.1-2.4.285zm10.335 3.483c-.218.29-1.935 2.493-5.724 4.04.24.49.47.985.68 1.486.08.18.15.36.22.53 3.41-.43 6.8.26 7.14.33-.02-2.42-.88-4.64-2.31-6.38z" fill="#EA4C89"/></g>
    <text x="337" y="60" class="lbl" fill="#EA4C89">Dribbble</text>
    <text x="337" y="76" class="hdl">@akadion</text>
  </a>

  <a xlink:href="https://figma.com/@akadion" target="_blank">
    <rect x="550" y="42" width="255" height="44" rx="12" fill="#161b22"/>
    <g transform="translate(564,52) scale(0.58)"><path d="M15.852 8.981h-4.588V0h4.588c2.476 0 4.49 2.014 4.49 4.49s-2.014 4.491-4.49 4.491zM12.735 7.51h3.117c1.665 0 3.019-1.355 3.019-3.019s-1.355-3.019-3.019-3.019h-3.117V7.51zm0 1.471H8.148c-2.476 0-4.49-2.014-4.49-4.49S5.672 0 8.148 0h4.588v8.981zm-4.587-7.51c-1.665 0-3.019 1.355-3.019 3.019s1.354 3.02 3.019 3.02h3.117V1.471H8.148zm4.587 15.019H8.148c-2.476 0-4.49-2.014-4.49-4.49s2.014-4.49 4.49-4.49h4.588v8.98zM8.148 8.981c-1.665 0-3.019 1.355-3.019 3.019s1.355 3.019 3.019 3.019h3.117V8.981H8.148zM8.172 24c-2.489 0-4.515-2.014-4.515-4.49s2.014-4.49 4.49-4.49h4.588v4.441c0 2.503-2.047 4.539-4.563 4.539zm-.024-7.51a3.023 3.023 0 0 0-3.019 3.019c0 1.665 1.365 3.019 3.044 3.019 1.705 0 3.093-1.376 3.093-3.068v-2.97H8.148zm7.704 0h-.098c-2.476 0-4.49-2.014-4.49-4.49s2.014-4.49 4.49-4.49h.098c2.476 0 4.49 2.014 4.49 4.49s-2.014 4.49-4.49 4.49zm-.097-7.509c-1.665 0-3.019 1.355-3.019 3.019s1.355 3.019 3.019 3.019h.098c1.665 0 3.019-1.355 3.019-3.019s-1.355-3.019-3.019-3.019h-.098z" fill="#F24E1E"/></g>
    <text x="604" y="60" class="lbl" fill="#A259FF">Figma</text>
    <text x="604" y="76" class="hdl">@akadion</text>
  </a>

  <text x="410" y="120" text-anchor="middle" class="sec" fill="#ff6b6b">SUPPORT &amp; CONTACT</text>

  <a xlink:href="https://producthunt.com/@akadion" target="_blank">
    <rect x="16" y="132" width="250" height="36" rx="10" fill="#161b22"/>
    <g transform="translate(30,138) scale(0.48)"><path d="M13.604 8.4h-3.405V12h3.405c.995 0 1.801-.806 1.801-1.801 0-.993-.805-1.799-1.801-1.799zM12 0C5.372 0 0 5.372 0 12s5.372 12 12 12 12-5.372 12-12S18.628 0 12 0zm1.604 14.4h-3.405V18H7.801V6h5.804c2.319 0 4.2 1.88 4.2 4.199 0 2.321-1.881 4.201-4.201 4.201z" fill="#DA552F"/></g>
    <text x="62" y="154" class="lbl" fill="#DA552F">Product Hunt</text>
  </a>

  <a xlink:href="https://patreon.com/akadion" target="_blank">
    <rect x="283" y="132" width="250" height="36" rx="10" fill="#161b22"/>
    <g transform="translate(297,138) scale(0.48)"><path d="M22.957 7.21c-.004-3.064-2.391-5.576-5.191-6.482-3.478-1.125-8.064-.962-11.384.604C2.357 3.231 1.093 7.391 1.046 11.54c-.039 3.411.302 12.396 5.369 12.46 3.765.047 4.326-4.804 6.068-7.141 1.24-1.662 2.836-2.132 4.801-2.618 3.376-.836 5.678-3.501 5.673-7.031Z" fill="#FF424D"/></g>
    <text x="329" y="154" class="lbl" fill="#FF424D">Patreon</text>
  </a>

  <a xlink:href="mailto:ogenhoanimation01@gmail.com" target="_blank">
    <rect x="550" y="132" width="250" height="36" rx="10" fill="#161b22"/>
    <g transform="translate(564,138) scale(0.48)"><path d="M24 5.457v13.909c0 .904-.732 1.636-1.636 1.636h-3.819V11.73L12 16.64l-6.545-4.91v9.273H1.636A1.636 1.636 0 0 1 0 19.366V5.457c0-2.023 2.309-3.178 3.927-1.964L5.455 4.64 12 9.548l6.545-4.91 1.528-1.145C21.69 2.28 24 3.434 24 5.457z" fill="#EA4335"/></g>
    <text x="596" y="154" class="lbl" fill="#EA4335">Gmail</text>
  </a>
</svg>
