<svg xmlns="http://www.w3.org/2000/svg" xmlns:xlink="http://www.w3.org/1999/xlink" width="820" height="180" viewBox="0 0 820 180">
  <style>
    text { font-family: 'Inter','Segoe UI',system-ui,sans-serif; }
    .sec { font-size: 13px; font-weight: 700; letter-spacing: 2px; }
    .lbl { font-size: 12.5px; font-weight: 600; }
    .hdl { font-size: 10px; fill: #484f58; }
  </style>
  <rect width="820" height="180" rx="16" fill="#0d1117"/>

  <text x="410" y="30" text-anchor="middle" class="sec" fill="#ffd700">CREATIVE &amp; WRITING</text>

  <a xlink:href="https://behance.net/akadion" target="_blank">
    <rect x="16" y="42" width="255" height="44" rx="12" fill="#161b22"/>
    <circle cx="42" cy="64" r="14" fill="#1769FF" opacity="0.15"/>
    <text x="42" y="68" text-anchor="middle" font-size="16" font-weight="800" fill="#1769FF" font-family="sans-serif">Be</text>
    <text x="72" y="60" class="lbl" fill="#1769FF">Behance</text>
    <text x="72" y="76" class="hdl">@akadion</text>
  </a>

  <a xlink:href="https://dribbble.com/akadion" target="_blank">
    <rect x="283" y="42" width="255" height="44" rx="12" fill="#161b22"/>
    <circle cx="309" cy="64" r="14" fill="#EA4C89" opacity="0.15"/>
    <circle cx="309" cy="64" r="7" fill="none" stroke="#EA4C89" stroke-width="1.5"/>
    <path d="M303 61c3 1.5 7 1 12-1" fill="none" stroke="#EA4C89" stroke-width="1"/>
    <path d="M304 67c3-1 7-.5 11 1" fill="none" stroke="#EA4C89" stroke-width="1"/>
    <text x="337" y="60" class="lbl" fill="#EA4C89">Dribbble</text>
    <text x="337" y="76" class="hdl">@akadion</text>
  </a>

  <a xlink:href="https://figma.com/@akadion" target="_blank">
    <rect x="550" y="42" width="255" height="44" rx="12" fill="#161b22"/>
    <circle cx="576" cy="64" r="14" fill="#A259FF" opacity="0.15"/>
    <rect x="570" y="56" width="6" height="6" rx="3" fill="#F24E1E"/>
    <rect x="576" y="56" width="6" height="6" rx="3" fill="#A259FF"/>
    <rect x="570" y="62" width="6" height="6" rx="3" fill="#1ABCFE"/>
    <rect x="576" y="62" width="6" height="6" rx="3" fill="#0ACF83"/>
    <text x="604" y="60" class="lbl" fill="#A259FF">Figma</text>
    <text x="604" y="76" class="hdl">@akadion</text>
  </a>

  <text x="410" y="120" text-anchor="middle" class="sec" fill="#ff6b6b">SUPPORT &amp; CONTACT</text>

  <a xlink:href="https://producthunt.com/@akadion" target="_blank">
    <rect x="16" y="132" width="250" height="36" rx="10" fill="#161b22"/>
    <circle cx="38" cy="150" r="10" fill="#DA552F" opacity="0.15"/>
    <path d="M33 150h4v-5h4v5h4l-6 7z" fill="#DA552F"/>
    <text x="58" y="154" class="lbl" fill="#DA552F">Product Hunt</text>
  </a>

  <a xlink:href="https://patreon.com/akadion" target="_blank">
    <rect x="283" y="132" width="250" height="36" rx="10" fill="#161b22"/>
    <circle cx="305" cy="150" r="10" fill="#FF424D" opacity="0.15"/>
    <circle cx="305" cy="150" r="5" fill="none" stroke="#FF424D" stroke-width="2"/>
    <text x="325" y="154" class="lbl" fill="#FF424D">Patreon</text>
  </a>

  <a xlink:href="mailto:ogenhoanimation01@gmail.com" target="_blank">
    <rect x="550" y="132" width="250" height="36" rx="10" fill="#161b22"/>
    <circle cx="572" cy="150" r="10" fill="#EA4335" opacity="0.15"/>
    <rect x="565" y="145" width="14" height="10" rx="2" fill="none" stroke="#EA4335" stroke-width="1.4"/>
    <path d="M565 145l7 5 7-5" fill="none" stroke="#EA4335" stroke-width="1.4" stroke-linejoin="round"/>
    <text x="592" y="154" class="lbl" fill="#EA4335">Gmail</text>
  </a>
</svg>
