<svg xmlns="http://www.w3.org/2000/svg" width="820" height="180" viewBox="0 0 820 180">
  <rect width="820" height="180" rx="16" fill="#0d1117"/>

  <rect x="16" y="16" width="255" height="148" rx="14" fill="#161b22"/>
  <text x="143" y="44" text-anchor="middle" font-family="Segoe UI,Arial,sans-serif" font-size="20" fill="#EA4C89">🎨 NYX</text>
  <text x="143" y="72" text-anchor="middle" font-family="Segoe UI,Arial,sans-serif" font-size="12" fill="#8b949e">Creative Portfolio Showcase</text>
  <rect x="43" y="92" width="200" height="18" rx="9" fill="#21262d"/>
  <rect x="43" y="92" width="130" height="18" rx="9" fill="#EA4C89" opacity="0.85"/>
  <text x="143" y="106" text-anchor="middle" font-family="Segoe UI,Arial,sans-serif" font-size="11" fill="#fff" font-weight="600">65%</text>
  <text x="143" y="138" text-anchor="middle" font-family="Segoe UI,Arial,sans-serif" font-size="11" fill="#58a6ff">WebGL · 3D · GLSL</text>

  <rect x="283" y="16" width="255" height="148" rx="14" fill="#161b22"/>
  <text x="410" y="44" text-anchor="middle" font-family="Segoe UI,Arial,sans-serif" font-size="20" fill="#FF6B00">🏢 Akadaion</text>
  <text x="410" y="72" text-anchor="middle" font-family="Segoe UI,Arial,sans-serif" font-size="12" fill="#8b949e">Institutional HQ</text>
  <rect x="310" y="92" width="200" height="18" rx="9" fill="#21262d"/>
  <rect x="310" y="92" width="160" height="18" rx="9" fill="#FF6B00" opacity="0.85"/>
  <text x="410" y="106" text-anchor="middle" font-family="Segoe UI,Arial,sans-serif" font-size="11" fill="#fff" font-weight="600">80%</text>
  <text x="410" y="138" text-anchor="middle" font-family="Segoe UI,Arial,sans-serif" font-size="11" fill="#58a6ff">Next.js · TypeScript · Enterprise</text>

  <rect x="550" y="16" width="255" height="148" rx="14" fill="#161b22"/>
  <text x="677" y="44" text-anchor="middle" font-family="Segoe UI,Arial,sans-serif" font-size="20" fill="#34D399">🎯 Owni</text>
  <text x="677" y="72" text-anchor="middle" font-family="Segoe UI,Arial,sans-serif" font-size="12" fill="#8b949e">Component &amp; Icon Library</text>
  <rect x="577" y="92" width="200" height="18" rx="9" fill="#21262d"/>
  <rect x="577" y="92" width="120" height="18" rx="9" fill="#34D399" opacity="0.85"/>
  <text x="677" y="106" text-anchor="middle" font-family="Segoe UI,Arial,sans-serif" font-size="11" fill="#000" font-weight="600">60%</text>
  <text x="677" y="138" text-anchor="middle" font-family="Segoe UI,Arial,sans-serif" font-size="11" fill="#58a6ff">Web Components · SVG · Design System</text>
</svg>
