<svg xmlns="http://www.w3.org/2000/svg" width="820" height="180" viewBox="0 0 820 180">
  <style>
    text { font-family: 'Inter', 'Segoe UI', system-ui, sans-serif; }
    .title { font-size: 20px; font-weight: 700; }
    .desc { font-size: 11px; fill: #8b949e; }
    .tag { font-size: 10px; fill: #58a6ff; }
  </style>
  <rect width="820" height="180" rx="16" fill="#0d1117"/>

  <rect x="16" y="16" width="255" height="148" rx="14" fill="#161b22"/>
  <text x="143" y="46" text-anchor="middle" class="title" fill="#EA4C89">🎨 NYX</text>
  <text x="143" y="68" text-anchor="middle" class="desc">Creative Portfolio Showcase</text>
  <rect x="43" y="84" width="200" height="18" rx="9" fill="#21262d"/>
  <rect x="43" y="84" width="130" height="18" rx="9" fill="#EA4C89" opacity="0.8"/>
  <text x="143" y="97" text-anchor="middle" font-size="10" fill="#fff" font-weight="700">65%</text>
  <text x="143" y="131" text-anchor="middle" class="tag">WebGL · 3D · GLSL</text>

  <rect x="283" y="16" width="255" height="148" rx="14" fill="#161b22"/>
  <text x="410" y="46" text-anchor="middle" class="title" fill="#FF6B00">🏢 Akadaion</text>
  <text x="410" y="68" text-anchor="middle" class="desc">Institutional HQ</text>
  <rect x="310" y="84" width="200" height="18" rx="9" fill="#21262d"/>
  <rect x="310" y="84" width="160" height="18" rx="9" fill="#FF6B00" opacity="0.8"/>
  <text x="410" y="97" text-anchor="middle" font-size="10" fill="#fff" font-weight="700">80%</text>
  <text x="410" y="131" text-anchor="middle" class="tag">Next.js · TypeScript · Enterprise</text>

  <rect x="550" y="16" width="255" height="148" rx="14" fill="#161b22"/>
  <text x="677" y="46" text-anchor="middle" class="title" fill="#34D399">🎯 Owni</text>
  <text x="677" y="68" text-anchor="middle" class="desc">Component &amp; Icon Library</text>
  <rect x="577" y="84" width="200" height="18" rx="9" fill="#21262d"/>
  <rect x="577" y="84" width="120" height="18" rx="9" fill="#34D399" opacity="0.8"/>
  <text x="677" y="97" text-anchor="middle" font-size="10" fill="#0d1117" font-weight="700">60%</text>
  <text x="677" y="131" text-anchor="middle" class="tag">Web Components · SVG · Design System</text>
</svg>
