<svg xmlns="http://www.w3.org/2000/svg" xmlns:xlink="http://www.w3.org/1999/xlink" width="820" height="230" viewBox="0 0 820 230">
  <style>
    text { font-family: 'Inter','Segoe UI',system-ui,sans-serif; }
    .pname { font-size: 18px; font-weight: 700; }
    .pdesc { font-size: 11.5px; fill: #8b949e; }
    .ptag { font-size: 10px; fill: #58a6ff; }
    .pct { font-size: 10px; font-weight: 700; }
  </style>
  <rect width="820" height="230" rx="16" fill="#0d1117"/>

  <rect x="16" y="16" width="255" height="198" rx="14" fill="#161b22"/>
  <circle cx="143" cy="56" r="22" fill="#1a1a2e" stroke="#ff6b6b" stroke-width="1.5"/>
  <text x="143" y="56" text-anchor="middle" dominant-baseline="central" font-size="20" fill="#ff6b6b">{ }</text>
  <text x="143" y="100" text-anchor="middle" class="pname" fill="#ff6b6b">Akia.js</text>
  <text x="143" y="120" text-anchor="middle" class="pdesc">Singleton renderer transpiling</text>
  <text x="143" y="136" text-anchor="middle" class="pdesc">7+ languages to JavaScript</text>
  <rect x="43" y="156" width="200" height="14" rx="7" fill="#21262d"/>
  <rect x="43" y="156" width="190" height="14" rx="7" fill="#ff6b6b" opacity="0.7"/>
  <text x="143" y="166" text-anchor="middle" class="pct" fill="#fff">95%</text>
  <text x="143" y="195" text-anchor="middle" class="ptag">JavaScript · ESNext · Transpiler</text>

  <rect x="283" y="16" width="255" height="198" rx="14" fill="#161b22"/>
  <circle cx="410" cy="56" r="22" fill="#1a1a2e" stroke="#ffd700" stroke-width="1.5"/>
  <text x="410" y="56" text-anchor="middle" dominant-baseline="central" font-size="12" font-weight="800" fill="#ffd700">.ak</text>
  <text x="410" y="100" text-anchor="middle" class="pname" fill="#ffd700">.ak Language</text>
  <text x="410" y="120" text-anchor="middle" class="pdesc">Proprietary Web Language</text>
  <text x="410" y="136" text-anchor="middle" class="pdesc">Native compiler design</text>
  <rect x="310" y="156" width="200" height="14" rx="7" fill="#21262d"/>
  <rect x="310" y="156" width="176" height="14" rx="7" fill="#ffd700" opacity="0.7"/>
  <text x="410" y="166" text-anchor="middle" class="pct" fill="#0d1117">88%</text>
  <text x="410" y="195" text-anchor="middle" class="ptag">Compiler · Native · Web</text>

  <rect x="550" y="16" width="255" height="198" rx="14" fill="#161b22"/>
  <circle cx="677" cy="56" r="22" fill="#1a1a2e" stroke="#4ecdc4" stroke-width="1.5"/>
  <path d="M669 48l8 8-8 8" fill="none" stroke="#4ecdc4" stroke-width="2.5" stroke-linecap="round" stroke-linejoin="round"/>
  <path d="M677 48h4a4 4 0 0 1 0 8h-4" fill="none" stroke="#4ecdc4" stroke-width="2" stroke-linecap="round"/>
  <text x="677" y="100" text-anchor="middle" class="pname" fill="#4ecdc4">Readgex</text>
  <text x="677" y="120" text-anchor="middle" class="pdesc">Intelligent AI Browser</text>
  <text x="677" y="136" text-anchor="middle" class="pdesc">Autonomous agent system</text>
  <rect x="577" y="156" width="200" height="14" rx="7" fill="#21262d"/>
  <rect x="577" y="156" width="164" height="14" rx="7" fill="#4ecdc4" opacity="0.7"/>
  <text x="677" y="166" text-anchor="middle" class="pct" fill="#0d1117">82%</text>
  <text x="677" y="195" text-anchor="middle" class="ptag">React · TypeScript · AI</text>
</svg>
