<svg xmlns="http://www.w3.org/2000/svg" width="820" height="220" viewBox="0 0 820 220">
  <style>
    text { font-family: 'Inter', 'Segoe UI', system-ui, sans-serif; }
    .title { font-size: 20px; font-weight: 700; }
    .desc { font-size: 11px; fill: #8b949e; }
    .tag { font-size: 10px; fill: #58a6ff; }
  </style>
  <rect width="820" height="220" rx="16" fill="#0d1117"/>

  <rect x="16" y="16" width="255" height="188" rx="14" fill="#161b22"/>
  <text x="143" y="50" text-anchor="middle" class="title" fill="#a855f7">🧠 Bilbid</text>
  <text x="143" y="74" text-anchor="middle" class="desc">Semantic Knowledge Engine</text>
  <text x="143" y="90" text-anchor="middle" class="desc">Structured knowledge</text>
  <rect x="43" y="112" width="200" height="18" rx="9" fill="#21262d"/>
  <rect x="43" y="112" width="174" height="18" rx="9" fill="#a855f7" opacity="0.8"/>
  <text x="143" y="125" text-anchor="middle" font-size="10" fill="#fff" font-weight="700">87%</text>
  <text x="143" y="160" text-anchor="middle" class="tag">AI · NLP · Knowledge Graph</text>

  <rect x="283" y="16" width="255" height="188" rx="14" fill="#161b22"/>
  <text x="410" y="50" text-anchor="middle" class="title" fill="#1DB954">🎵 IUKKA Player</text>
  <text x="410" y="74" text-anchor="middle" class="desc">Quantum Streaming Platform</text>
  <text x="410" y="90" text-anchor="middle" class="desc">Immersive sound design</text>
  <rect x="310" y="112" width="200" height="18" rx="9" fill="#21262d"/>
  <rect x="310" y="112" width="152" height="18" rx="9" fill="#1DB954" opacity="0.8"/>
  <text x="410" y="125" text-anchor="middle" font-size="10" fill="#fff" font-weight="700">76%</text>
  <text x="410" y="160" text-anchor="middle" class="tag">WebRTC · Streaming · Audio</text>

  <rect x="550" y="16" width="255" height="188" rx="14" fill="#161b22"/>
  <text x="677" y="50" text-anchor="middle" class="title" fill="#58a6ff">💼 SHIYO</text>
  <text x="677" y="74" text-anchor="middle" class="desc">Social Media Portfolio</text>
  <text x="677" y="90" text-anchor="middle" class="desc">Showcase &amp; connect</text>
  <rect x="577" y="112" width="200" height="18" rx="9" fill="#21262d"/>
  <rect x="577" y="112" width="140" height="18" rx="9" fill="#58a6ff" opacity="0.8"/>
  <text x="677" y="125" text-anchor="middle" font-size="10" fill="#0d1117" font-weight="700">70%</text>
  <text x="677" y="160" text-anchor="middle" class="tag">React · Node.js · Social · API</text>
</svg>
