<svg xmlns="http://www.w3.org/2000/svg" xmlns:xlink="http://www.w3.org/1999/xlink" width="820" height="220" viewBox="0 0 820 220">
  <defs>
    <path id="feather-music" d="M9 18V5l12-2v13"/>
    <path id="feather-cpu" d="M6 4h12v12H6zM9 1v3M15 1v3M9 16v3M15 16v3M1 9h3M1 13h3M17 9h3M17 13h3"/>
    <path id="feather-eye" d="M1 12s4-8 11-8 11 8 11 8-4 8-11 8-11-8-11-8z"/>
    <path id="feather-lightbulb" d="M9 18h6M12 2v1M4.22 4.22l.71.71M1 12h1M21 12h1M18.36 4.22l-.71.71M16 12a4 4 0 11-8 0"/>
  </defs>
  <style>
    text { font-family: 'Inter', 'Segoe UI', system-ui, sans-serif; }
    .title { font-size: 20px; font-weight: 700; }
    .desc { font-size: 11px; fill: #8b949e; }
    .tag { font-size: 10px; fill: #58a6ff; }
  </style>
  <rect width="820" height="220" rx="16" fill="#0d1117"/>

  <rect x="16" y="16" width="255" height="188" rx="14" fill="#161b22"/>
  <text x="143" y="50" text-anchor="middle" class="title" fill="#ff6b6b">🔥 Akia.js</text>
  <text x="143" y="74" text-anchor="middle" class="desc">Singleton renderer transpiling</text>
  <text x="143" y="90" text-anchor="middle" class="desc">7+ languages</text>
  <rect x="43" y="112" width="200" height="18" rx="9" fill="#21262d"/>
  <rect x="43" y="112" width="190" height="18" rx="9" fill="#00f7f7" opacity="0.8"/>
  <text x="143" y="125" text-anchor="middle" font-size="10" fill="#0d1117" font-weight="700">95%</text>
  <text x="143" y="160" text-anchor="middle" class="tag">JavaScript · ESNext · Transpiler · Compiler</text>

  <rect x="283" y="16" width="255" height="188" rx="14" fill="#161b22"/>
  <text x="410" y="50" text-anchor="middle" class="title" fill="#ffd700">⚡ .ak Language</text>
  <text x="410" y="74" text-anchor="middle" class="desc">Proprietary Web Language</text>
  <text x="410" y="90" text-anchor="middle" class="desc">Native compiler design</text>
  <rect x="310" y="112" width="200" height="18" rx="9" fill="#21262d"/>
  <rect x="310" y="112" width="176" height="18" rx="9" fill="#ffd700" opacity="0.8"/>
  <text x="410" y="125" text-anchor="middle" font-size="10" fill="#0d1117" font-weight="700">88%</text>
  <text x="410" y="160" text-anchor="middle" class="tag">Compiler · Native · Web</text>

  <rect x="550" y="16" width="255" height="188" rx="14" fill="#161b22"/>
  <text x="677" y="50" text-anchor="middle" class="title" fill="#4ecdc4">🌐 Readgex</text>
  <text x="677" y="74" text-anchor="middle" class="desc">Intelligent AI Browser</text>
  <text x="677" y="90" text-anchor="middle" class="desc">Autonomous agent</text>
  <rect x="577" y="112" width="200" height="18" rx="9" fill="#21262d"/>
  <rect x="577" y="112" width="164" height="18" rx="9" fill="#4ecdc4" opacity="0.8"/>
  <text x="677" y="125" text-anchor="middle" font-size="10" fill="#0d1117" font-weight="700">82%</text>
  <text x="677" y="160" text-anchor="middle" class="tag">React · TypeScript · AI · Autonomous</text>
</svg>
