<svg xmlns="http://www.w3.org/2000/svg" width="820" height="220" viewBox="0 0 820 220">
  <rect width="820" height="220" rx="16" fill="#0d1117"/>

  <rect x="16" y="16" width="255" height="188" rx="14" fill="#161b22"/>
  <text x="143" y="48" text-anchor="middle" font-family="Segoe UI,Arial,sans-serif" font-size="20" fill="#ff6b6b">🔥 Akia.js</text>
  <text x="143" y="76" text-anchor="middle" font-family="Segoe UI,Arial,sans-serif" font-size="12" fill="#8b949e">Singleton renderer transpiling</text>
  <text x="143" y="94" text-anchor="middle" font-family="Segoe UI,Arial,sans-serif" font-size="12" fill="#8b949e">7+ languages</text>
  <rect x="43" y="116" width="200" height="18" rx="9" fill="#21262d"/>
  <rect x="43" y="116" width="190" height="18" rx="9" fill="#00f7f7" opacity="0.85"/>
  <text x="143" y="130" text-anchor="middle" font-family="Segoe UI,Arial,sans-serif" font-size="11" fill="#000" font-weight="600">95%</text>
  <text x="143" y="168" text-anchor="middle" font-family="Segoe UI,Arial,sans-serif" font-size="11" fill="#58a6ff">JavaScript · ESNext · Transpiler · Compiler</text>

  <rect x="283" y="16" width="255" height="188" rx="14" fill="#161b22"/>
  <text x="410" y="48" text-anchor="middle" font-family="Segoe UI,Arial,sans-serif" font-size="20" fill="#ffd700">⚡ .ak Language</text>
  <text x="410" y="76" text-anchor="middle" font-family="Segoe UI,Arial,sans-serif" font-size="12" fill="#8b949e">Proprietary Web Language</text>
  <text x="410" y="94" text-anchor="middle" font-family="Segoe UI,Arial,sans-serif" font-size="12" fill="#8b949e">Native compiler design</text>
  <rect x="310" y="116" width="200" height="18" rx="9" fill="#21262d"/>
  <rect x="310" y="116" width="176" height="18" rx="9" fill="#ffd700" opacity="0.85"/>
  <text x="410" y="130" text-anchor="middle" font-family="Segoe UI,Arial,sans-serif" font-size="11" fill="#000" font-weight="600">88%</text>
  <text x="410" y="168" text-anchor="middle" font-family="Segoe UI,Arial,sans-serif" font-size="11" fill="#58a6ff">Compiler · Native · Web</text>

  <rect x="550" y="16" width="255" height="188" rx="14" fill="#161b22"/>
  <text x="677" y="48" text-anchor="middle" font-family="Segoe UI,Arial,sans-serif" font-size="20" fill="#4ecdc4">🌐 Readgex</text>
  <text x="677" y="76" text-anchor="middle" font-family="Segoe UI,Arial,sans-serif" font-size="12" fill="#8b949e">Intelligent AI Browser</text>
  <text x="677" y="94" text-anchor="middle" font-family="Segoe UI,Arial,sans-serif" font-size="12" fill="#8b949e">Autonomous agent</text>
  <rect x="577" y="116" width="200" height="18" rx="9" fill="#21262d"/>
  <rect x="577" y="116" width="164" height="18" rx="9" fill="#4ecdc4" opacity="0.85"/>
  <text x="677" y="130" text-anchor="middle" font-family="Segoe UI,Arial,sans-serif" font-size="11" fill="#000" font-weight="600">82%</text>
  <text x="677" y="168" text-anchor="middle" font-family="Segoe UI,Arial,sans-serif" font-size="11" fill="#58a6ff">React · TypeScript · AI · Autonomous</text>
</svg>
